<svg width="26" height="26" viewBox="0 0 26 26" fill="none" xmlns="http://www.w3.org/2000/svg">
<path fill-rule="evenodd" clip-rule="evenodd" d="M1.74749 0.348794C2.19398 0.119018 2.69056 -0.00135805 3.19599 1.15581e-05H12.8605H13.0126L13.0127 4.57711e-05H22.8047C23.6506 4.20756e-05 24.462 0.335531 25.0609 0.932921C25.6599 1.53031 25.9976 2.34085 26.0001 3.18685L26.0001 3.18833L26.0001 8.713L26.0002 8.71302V8.97968V16.6906L26.0003 16.6907V16.9567V22.8039V22.8079H26.0002C25.9959 23.3535 25.851 23.8854 25.5837 24.3541L25.6128 24.3737L25.3596 24.6943C25.3322 24.7306 25.304 24.7664 25.2749 24.8016C25.2469 24.837 25.2181 24.8717 25.1886 24.9058L24.9825 25.1548L24.9626 25.1414C24.7311 25.3591 24.4675 25.5413 24.1801 25.6811C23.7521 25.8895 23.2826 25.9985 22.8065 26.0001L22.8049 26.0001H16.2358L16.2358 26.0001H14.599H3.19541H3.19393C2.34757 25.9976 1.53661 25.6602 0.938183 25.0616C0.339764 24.463 0.00249475 23.6518 2.17557e-06 22.8054L0 22.8039V16.2654V15.9994V15.9994V15.0596V8.32021V8.05421V8.0542V7.11434V3.18818V3.18672H2.14577e-06C0.00155318 2.6559 0.13558 2.13387 0.389918 1.66799C0.527335 1.41628 0.697526 1.18525 0.895248 0.980571L0.82723 0.93474L1.40313 0.554109C1.4208 0.542173 1.43859 0.530407 1.45651 0.518814L1.45826 0.51768C1.47154 0.508949 1.48487 0.500324 1.49827 0.491804L1.7337 0.339505L1.74749 0.348794ZM25.0002 16.0168L2.77368 1.04026C2.91141 1.0132 3.0521 0.99959 3.19381 1.00001V1.00001H3.19529H12.7077L25.0002 9.27774V16.0168ZM1.74357 1.55218C1.55199 1.72059 1.39068 1.92178 1.26764 2.14716C1.09317 2.46674 1.00118 2.82481 1 3.18894V7.78821L24.751 23.793C24.9107 23.489 24.9971 23.1495 25.0003 22.8019V17.2229L1.74357 1.55218ZM25.0001 8.04212V3.18919C24.9982 2.608 24.7662 2.05128 24.3548 1.64096C23.9432 1.23051 23.3858 1.00004 22.8047 1.00005H14.5033L25.0001 8.04212ZM1 8.99406L24.1018 24.5614C23.9899 24.6462 23.8696 24.7201 23.7425 24.782C23.4501 24.9243 23.1294 24.9989 22.8042 25.0001H14.7518L1 15.7334V8.99406ZM1 16.9393L12.9623 25.0001H3.19626C2.61442 24.9983 2.05689 24.7662 1.6454 24.3546C1.23392 23.943 1.0019 23.3853 1 22.8031V16.9393Z" fill="#EEEEEE"/>
</svg>
