<svg width="24" height="24" viewBox="0 0 24 24" fill="none" xmlns="http://www.w3.org/2000/svg">
<g id="Group 1018">
<g id="Vector">
<mask id="path-1-outside-1_1_748" maskUnits="userSpaceOnUse" x="0" y="0" width="24" height="24" fill="black">
<rect fill="white" width="24" height="24"/>
<path d="M14.6932 23C13.8433 23 13.1323 22.4959 12.74 21.6154C12.5629 21.2187 12.3654 21.0923 12.2319 21.0325C11.9977 20.9252 11.8247 20.9551 11.5999 21.1262C11.4188 21.2635 11.2976 21.4157 11.2308 21.5909C10.829 22.6236 9.76523 23.1617 8.66331 22.9524C7.61178 22.7554 6.77411 22.3885 6.10124 21.8328C5.61634 21.4306 5.33849 20.9741 5.25131 20.4346C5.17639 19.9686 5.29354 19.5745 5.40522 19.2838C5.49648 19.0433 5.56595 18.8449 5.55777 18.6615C5.54823 18.4821 5.41338 18.3231 5.24859 18.3014C4.93123 18.2593 4.6016 18.3326 4.27608 18.4074C3.36213 18.6153 2.55033 18.3163 1.99732 17.5799C1.413 16.804 1.08202 15.9263 1.01526 14.9711C0.940349 13.9234 1.39936 13.1326 2.30788 12.7481C2.63205 12.6109 2.85407 12.4125 2.98484 12.1435C3.10062 11.9057 3.03251 11.7929 2.95895 11.7073C2.70288 11.4002 2.57894 11.3255 2.52717 11.3065C1.23321 10.8513 0.816404 9.50609 1.07112 8.41501C1.23049 7.72746 1.4743 6.9326 2.06407 6.25322C2.65113 5.57926 3.37304 5.33469 4.15759 5.55889L4.3047 5.60102C4.54715 5.67168 4.75555 5.73147 4.94079 5.73147C5.58778 5.6907 5.61228 5.332 5.62319 5.17844L5.63953 4.91756C5.64633 4.86185 5.62999 4.45422 5.58096 4.25856C5.36983 3.42292 5.64633 2.64163 6.36143 2.06142C7.06972 1.48531 7.93191 1.15377 9.07606 1.0179C10.0159 0.905128 10.7419 1.34401 11.1478 2.20818C11.2813 2.48809 11.3875 2.65386 11.5155 2.7775C11.8356 3.08594 12.4785 2.90522 12.6774 2.49352C12.7972 2.24623 12.9525 1.99892 13.1377 1.75706C13.5818 1.18231 14.2424 0.915983 14.9888 1.02332C15.6835 1.12659 16.5838 1.32768 17.3602 1.97174C17.8029 2.3386 18.2333 2.77477 18.3736 3.46503C18.4744 3.96098 18.3286 4.37675 18.221 4.67977C18.1515 4.87951 18.1257 5.05344 18.142 5.22735C18.1679 5.51269 18.4458 5.78309 18.725 5.79259C18.9729 5.77221 19.2153 5.75046 19.4333 5.65942C19.7329 5.53578 20.0326 5.47328 20.3227 5.47328C20.7967 5.47328 21.4791 5.63769 22.0444 6.42306C22.5729 7.15816 22.8807 8.02913 22.9883 9.08489C23.0823 10.0034 22.6069 10.7671 21.6862 11.1774C21.4887 11.2657 21.3347 11.3731 21.2081 11.5103C21.0446 11.6842 20.9792 11.9125 21.0228 12.1408C21.0651 12.365 21.2094 12.5498 21.4165 12.649C21.791 12.8242 22.216 13.0647 22.5374 13.505C22.9161 14.0186 23.0469 14.63 22.9256 15.3189C22.8194 15.9358 22.6001 16.8448 21.9313 17.6071C21.2993 18.3272 20.6115 18.4794 20.1456 18.4794C19.9481 18.4794 19.7438 18.4522 19.5409 18.4006C19.2004 18.3123 18.8503 18.2281 18.4989 18.296C18.3504 18.3232 18.1611 18.5365 18.1516 18.69C18.1339 18.9468 18.157 19.1316 18.2251 19.2852C18.6678 20.2811 18.3286 21.4212 17.4011 22.0571C16.6778 22.5516 15.8647 22.8628 14.982 22.981C14.8839 22.9946 14.7872 23 14.6932 23ZM11.9827 19.4006C12.2837 19.4006 12.5861 19.4672 12.8817 19.6004C13.451 19.8585 13.8869 20.3219 14.1784 20.9781C14.3799 21.4292 14.6156 21.4292 14.6932 21.4292L14.7722 21.4238C15.4165 21.3382 15.9845 21.1208 16.5102 20.7607C16.739 20.6045 16.9488 20.2893 16.7854 19.9197C16.5565 19.4033 16.5579 18.9101 16.5797 18.584C16.6396 17.7089 17.3601 16.9046 18.2182 16.7496C18.8434 16.6369 19.4564 16.7564 19.9331 16.8787C20.1565 16.9345 20.3485 17.0241 20.7462 16.5717C21.0609 16.2143 21.2543 15.7442 21.3742 15.0498C21.4327 14.7156 21.3524 14.5498 21.2666 14.433C21.1576 14.2835 20.9778 14.1789 20.7422 14.0675C20.0761 13.7536 19.6144 13.1584 19.4754 12.4356C19.3365 11.71 19.5476 10.9831 20.0529 10.4423C20.3226 10.1515 20.6454 9.92186 21.0404 9.74388C21.4545 9.56045 21.4341 9.36886 21.4218 9.2425C21.3428 8.46665 21.1276 7.84432 20.7639 7.33887C20.5514 7.04401 20.3853 7.04401 20.3226 7.04401C20.2409 7.04401 20.1442 7.06574 20.0379 7.11058C19.632 7.27907 19.2098 7.36467 18.7875 7.36467C17.5889 7.32119 16.6709 6.44479 16.5728 5.3673C16.5374 4.96783 16.5905 4.57241 16.7363 4.16071C16.7894 4.00718 16.8452 3.84955 16.8302 3.77755C16.788 3.57237 16.63 3.40933 16.3535 3.17969C15.9762 2.86716 15.4995 2.6878 14.7558 2.57775C14.5692 2.56687 14.4806 2.59405 14.388 2.71363C14.2668 2.87123 14.1687 3.02615 14.0952 3.17697C13.7029 3.98952 12.8571 4.51536 11.9418 4.51536C11.367 4.51536 10.8262 4.29932 10.419 3.90664C10.0784 3.57646 9.87685 3.20144 9.72294 2.87806C9.57993 2.57234 9.43826 2.57234 9.34564 2.57234C8.4276 2.67697 7.82284 2.89981 7.35564 3.27891C7.05054 3.52755 7.06281 3.69741 7.10912 3.87813C7.18267 4.17435 7.21944 4.78985 7.21944 4.78985L7.22216 4.83605L7.19491 5.28852C7.11456 6.42989 6.29049 7.21932 5.09323 7.29813L4.94068 7.3022C4.53206 7.3022 4.17793 7.20028 3.86601 7.10925L3.72844 7.06983C3.57181 7.05217 3.45739 7.04946 3.25445 7.2818C2.89077 7.70031 2.72732 8.24517 2.60474 8.77101C2.5271 9.10391 2.58157 9.65965 3.05151 9.82542C3.53368 9.99526 3.90144 10.3812 4.16841 10.6991C4.67783 11.3078 4.76227 12.085 4.40132 12.8296C4.1003 13.4479 3.60314 13.9058 2.92346 14.1938C2.71914 14.2808 2.55296 14.3909 2.58703 14.861C2.63198 15.5105 2.85673 16.107 3.25581 16.6369C3.5146 16.9807 3.69303 16.9304 3.92322 16.8774C4.38359 16.7714 4.90664 16.6709 5.4569 16.7442C6.37903 16.8652 7.08323 17.641 7.12954 18.5881C7.15132 19.0732 7.0165 19.4726 6.87619 19.8409C6.81354 20.0066 6.79311 20.1058 6.80671 20.1846C6.82442 20.2988 6.87345 20.4306 7.10773 20.6249C7.57357 21.0108 8.16198 21.2594 8.95606 21.4089C9.02007 21.4211 9.08409 21.4265 9.14812 21.4265C9.60441 21.4265 9.72292 21.1249 9.76106 21.0257C9.93268 20.5786 10.2323 20.1901 10.6478 19.8748C11.0647 19.5596 11.5128 19.4006 11.9827 19.4006Z"/>
</mask>
<path d="M14.6932 23C13.8433 23 13.1323 22.4959 12.74 21.6154C12.5629 21.2187 12.3654 21.0923 12.2319 21.0325C11.9977 20.9252 11.8247 20.9551 11.5999 21.1262C11.4188 21.2635 11.2976 21.4157 11.2308 21.5909C10.829 22.6236 9.76523 23.1617 8.66331 22.9524C7.61178 22.7554 6.77411 22.3885 6.10124 21.8328C5.61634 21.4306 5.33849 20.9741 5.25131 20.4346C5.17639 19.9686 5.29354 19.5745 5.40522 19.2838C5.49648 19.0433 5.56595 18.8449 5.55777 18.6615C5.54823 18.4821 5.41338 18.3231 5.24859 18.3014C4.93123 18.2593 4.6016 18.3326 4.27608 18.4074C3.36213 18.6153 2.55033 18.3163 1.99732 17.5799C1.413 16.804 1.08202 15.9263 1.01526 14.9711C0.940349 13.9234 1.39936 13.1326 2.30788 12.7481C2.63205 12.6109 2.85407 12.4125 2.98484 12.1435C3.10062 11.9057 3.03251 11.7929 2.95895 11.7073C2.70288 11.4002 2.57894 11.3255 2.52717 11.3065C1.23321 10.8513 0.816404 9.50609 1.07112 8.41501C1.23049 7.72746 1.4743 6.9326 2.06407 6.25322C2.65113 5.57926 3.37304 5.33469 4.15759 5.55889L4.3047 5.60102C4.54715 5.67168 4.75555 5.73147 4.94079 5.73147C5.58778 5.6907 5.61228 5.332 5.62319 5.17844L5.63953 4.91756C5.64633 4.86185 5.62999 4.45422 5.58096 4.25856C5.36983 3.42292 5.64633 2.64163 6.36143 2.06142C7.06972 1.48531 7.93191 1.15377 9.07606 1.0179C10.0159 0.905128 10.7419 1.34401 11.1478 2.20818C11.2813 2.48809 11.3875 2.65386 11.5155 2.7775C11.8356 3.08594 12.4785 2.90522 12.6774 2.49352C12.7972 2.24623 12.9525 1.99892 13.1377 1.75706C13.5818 1.18231 14.2424 0.915983 14.9888 1.02332C15.6835 1.12659 16.5838 1.32768 17.3602 1.97174C17.8029 2.3386 18.2333 2.77477 18.3736 3.46503C18.4744 3.96098 18.3286 4.37675 18.221 4.67977C18.1515 4.87951 18.1257 5.05344 18.142 5.22735C18.1679 5.51269 18.4458 5.78309 18.725 5.79259C18.9729 5.77221 19.2153 5.75046 19.4333 5.65942C19.7329 5.53578 20.0326 5.47328 20.3227 5.47328C20.7967 5.47328 21.4791 5.63769 22.0444 6.42306C22.5729 7.15816 22.8807 8.02913 22.9883 9.08489C23.0823 10.0034 22.6069 10.7671 21.6862 11.1774C21.4887 11.2657 21.3347 11.3731 21.2081 11.5103C21.0446 11.6842 20.9792 11.9125 21.0228 12.1408C21.0651 12.365 21.2094 12.5498 21.4165 12.649C21.791 12.8242 22.216 13.0647 22.5374 13.505C22.9161 14.0186 23.0469 14.63 22.9256 15.3189C22.8194 15.9358 22.6001 16.8448 21.9313 17.6071C21.2993 18.3272 20.6115 18.4794 20.1456 18.4794C19.9481 18.4794 19.7438 18.4522 19.5409 18.4006C19.2004 18.3123 18.8503 18.2281 18.4989 18.296C18.3504 18.3232 18.1611 18.5365 18.1516 18.69C18.1339 18.9468 18.157 19.1316 18.2251 19.2852C18.6678 20.2811 18.3286 21.4212 17.4011 22.0571C16.6778 22.5516 15.8647 22.8628 14.982 22.981C14.8839 22.9946 14.7872 23 14.6932 23ZM11.9827 19.4006C12.2837 19.4006 12.5861 19.4672 12.8817 19.6004C13.451 19.8585 13.8869 20.3219 14.1784 20.9781C14.3799 21.4292 14.6156 21.4292 14.6932 21.4292L14.7722 21.4238C15.4165 21.3382 15.9845 21.1208 16.5102 20.7607C16.739 20.6045 16.9488 20.2893 16.7854 19.9197C16.5565 19.4033 16.5579 18.9101 16.5797 18.584C16.6396 17.7089 17.3601 16.9046 18.2182 16.7496C18.8434 16.6369 19.4564 16.7564 19.9331 16.8787C20.1565 16.9345 20.3485 17.0241 20.7462 16.5717C21.0609 16.2143 21.2543 15.7442 21.3742 15.0498C21.4327 14.7156 21.3524 14.5498 21.2666 14.433C21.1576 14.2835 20.9778 14.1789 20.7422 14.0675C20.0761 13.7536 19.6144 13.1584 19.4754 12.4356C19.3365 11.71 19.5476 10.9831 20.0529 10.4423C20.3226 10.1515 20.6454 9.92186 21.0404 9.74388C21.4545 9.56045 21.4341 9.36886 21.4218 9.2425C21.3428 8.46665 21.1276 7.84432 20.7639 7.33887C20.5514 7.04401 20.3853 7.04401 20.3226 7.04401C20.2409 7.04401 20.1442 7.06574 20.0379 7.11058C19.632 7.27907 19.2098 7.36467 18.7875 7.36467C17.5889 7.32119 16.6709 6.44479 16.5728 5.3673C16.5374 4.96783 16.5905 4.57241 16.7363 4.16071C16.7894 4.00718 16.8452 3.84955 16.8302 3.77755C16.788 3.57237 16.63 3.40933 16.3535 3.17969C15.9762 2.86716 15.4995 2.6878 14.7558 2.57775C14.5692 2.56687 14.4806 2.59405 14.388 2.71363C14.2668 2.87123 14.1687 3.02615 14.0952 3.17697C13.7029 3.98952 12.8571 4.51536 11.9418 4.51536C11.367 4.51536 10.8262 4.29932 10.419 3.90664C10.0784 3.57646 9.87685 3.20144 9.72294 2.87806C9.57993 2.57234 9.43826 2.57234 9.34564 2.57234C8.4276 2.67697 7.82284 2.89981 7.35564 3.27891C7.05054 3.52755 7.06281 3.69741 7.10912 3.87813C7.18267 4.17435 7.21944 4.78985 7.21944 4.78985L7.22216 4.83605L7.19491 5.28852C7.11456 6.42989 6.29049 7.21932 5.09323 7.29813L4.94068 7.3022C4.53206 7.3022 4.17793 7.20028 3.86601 7.10925L3.72844 7.06983C3.57181 7.05217 3.45739 7.04946 3.25445 7.2818C2.89077 7.70031 2.72732 8.24517 2.60474 8.77101C2.5271 9.10391 2.58157 9.65965 3.05151 9.82542C3.53368 9.99526 3.90144 10.3812 4.16841 10.6991C4.67783 11.3078 4.76227 12.085 4.40132 12.8296C4.1003 13.4479 3.60314 13.9058 2.92346 14.1938C2.71914 14.2808 2.55296 14.3909 2.58703 14.861C2.63198 15.5105 2.85673 16.107 3.25581 16.6369C3.5146 16.9807 3.69303 16.9304 3.92322 16.8774C4.38359 16.7714 4.90664 16.6709 5.4569 16.7442C6.37903 16.8652 7.08323 17.641 7.12954 18.5881C7.15132 19.0732 7.0165 19.4726 6.87619 19.8409C6.81354 20.0066 6.79311 20.1058 6.80671 20.1846C6.82442 20.2988 6.87345 20.4306 7.10773 20.6249C7.57357 21.0108 8.16198 21.2594 8.95606 21.4089C9.02007 21.4211 9.08409 21.4265 9.14812 21.4265C9.60441 21.4265 9.72292 21.1249 9.76106 21.0257C9.93268 20.5786 10.2323 20.1901 10.6478 19.8748C11.0647 19.5596 11.5128 19.4006 11.9827 19.4006Z" fill="#1E1E1E"/>
<path d="M14.6932 23C13.8433 23 13.1323 22.4959 12.74 21.6154C12.5629 21.2187 12.3654 21.0923 12.2319 21.0325C11.9977 20.9252 11.8247 20.9551 11.5999 21.1262C11.4188 21.2635 11.2976 21.4157 11.2308 21.5909C10.829 22.6236 9.76523 23.1617 8.66331 22.9524C7.61178 22.7554 6.77411 22.3885 6.10124 21.8328C5.61634 21.4306 5.33849 20.9741 5.25131 20.4346C5.17639 19.9686 5.29354 19.5745 5.40522 19.2838C5.49648 19.0433 5.56595 18.8449 5.55777 18.6615C5.54823 18.4821 5.41338 18.3231 5.24859 18.3014C4.93123 18.2593 4.6016 18.3326 4.27608 18.4074C3.36213 18.6153 2.55033 18.3163 1.99732 17.5799C1.413 16.804 1.08202 15.9263 1.01526 14.9711C0.940349 13.9234 1.39936 13.1326 2.30788 12.7481C2.63205 12.6109 2.85407 12.4125 2.98484 12.1435C3.10062 11.9057 3.03251 11.7929 2.95895 11.7073C2.70288 11.4002 2.57894 11.3255 2.52717 11.3065C1.23321 10.8513 0.816404 9.50609 1.07112 8.41501C1.23049 7.72746 1.4743 6.9326 2.06407 6.25322C2.65113 5.57926 3.37304 5.33469 4.15759 5.55889L4.3047 5.60102C4.54715 5.67168 4.75555 5.73147 4.94079 5.73147C5.58778 5.6907 5.61228 5.332 5.62319 5.17844L5.63953 4.91756C5.64633 4.86185 5.62999 4.45422 5.58096 4.25856C5.36983 3.42292 5.64633 2.64163 6.36143 2.06142C7.06972 1.48531 7.93191 1.15377 9.07606 1.0179C10.0159 0.905128 10.7419 1.34401 11.1478 2.20818C11.2813 2.48809 11.3875 2.65386 11.5155 2.7775C11.8356 3.08594 12.4785 2.90522 12.6774 2.49352C12.7972 2.24623 12.9525 1.99892 13.1377 1.75706C13.5818 1.18231 14.2424 0.915983 14.9888 1.02332C15.6835 1.12659 16.5838 1.32768 17.3602 1.97174C17.8029 2.3386 18.2333 2.77477 18.3736 3.46503C18.4744 3.96098 18.3286 4.37675 18.221 4.67977C18.1515 4.87951 18.1257 5.05344 18.142 5.22735C18.1679 5.51269 18.4458 5.78309 18.725 5.79259C18.9729 5.77221 19.2153 5.75046 19.4333 5.65942C19.7329 5.53578 20.0326 5.47328 20.3227 5.47328C20.7967 5.47328 21.4791 5.63769 22.0444 6.42306C22.5729 7.15816 22.8807 8.02913 22.9883 9.08489C23.0823 10.0034 22.6069 10.7671 21.6862 11.1774C21.4887 11.2657 21.3347 11.3731 21.2081 11.5103C21.0446 11.6842 20.9792 11.9125 21.0228 12.1408C21.0651 12.365 21.2094 12.5498 21.4165 12.649C21.791 12.8242 22.216 13.0647 22.5374 13.505C22.9161 14.0186 23.0469 14.63 22.9256 15.3189C22.8194 15.9358 22.6001 16.8448 21.9313 17.6071C21.2993 18.3272 20.6115 18.4794 20.1456 18.4794C19.9481 18.4794 19.7438 18.4522 19.5409 18.4006C19.2004 18.3123 18.8503 18.2281 18.4989 18.296C18.3504 18.3232 18.1611 18.5365 18.1516 18.69C18.1339 18.9468 18.157 19.1316 18.2251 19.2852C18.6678 20.2811 18.3286 21.4212 17.4011 22.0571C16.6778 22.5516 15.8647 22.8628 14.982 22.981C14.8839 22.9946 14.7872 23 14.6932 23ZM11.9827 19.4006C12.2837 19.4006 12.5861 19.4672 12.8817 19.6004C13.451 19.8585 13.8869 20.3219 14.1784 20.9781C14.3799 21.4292 14.6156 21.4292 14.6932 21.4292L14.7722 21.4238C15.4165 21.3382 15.9845 21.1208 16.5102 20.7607C16.739 20.6045 16.9488 20.2893 16.7854 19.9197C16.5565 19.4033 16.5579 18.9101 16.5797 18.584C16.6396 17.7089 17.3601 16.9046 18.2182 16.7496C18.8434 16.6369 19.4564 16.7564 19.9331 16.8787C20.1565 16.9345 20.3485 17.0241 20.7462 16.5717C21.0609 16.2143 21.2543 15.7442 21.3742 15.0498C21.4327 14.7156 21.3524 14.5498 21.2666 14.433C21.1576 14.2835 20.9778 14.1789 20.7422 14.0675C20.0761 13.7536 19.6144 13.1584 19.4754 12.4356C19.3365 11.71 19.5476 10.9831 20.0529 10.4423C20.3226 10.1515 20.6454 9.92186 21.0404 9.74388C21.4545 9.56045 21.4341 9.36886 21.4218 9.2425C21.3428 8.46665 21.1276 7.84432 20.7639 7.33887C20.5514 7.04401 20.3853 7.04401 20.3226 7.04401C20.2409 7.04401 20.1442 7.06574 20.0379 7.11058C19.632 7.27907 19.2098 7.36467 18.7875 7.36467C17.5889 7.32119 16.6709 6.44479 16.5728 5.3673C16.5374 4.96783 16.5905 4.57241 16.7363 4.16071C16.7894 4.00718 16.8452 3.84955 16.8302 3.77755C16.788 3.57237 16.63 3.40933 16.3535 3.17969C15.9762 2.86716 15.4995 2.6878 14.7558 2.57775C14.5692 2.56687 14.4806 2.59405 14.388 2.71363C14.2668 2.87123 14.1687 3.02615 14.0952 3.17697C13.7029 3.98952 12.8571 4.51536 11.9418 4.51536C11.367 4.51536 10.8262 4.29932 10.419 3.90664C10.0784 3.57646 9.87685 3.20144 9.72294 2.87806C9.57993 2.57234 9.43826 2.57234 9.34564 2.57234C8.4276 2.67697 7.82284 2.89981 7.35564 3.27891C7.05054 3.52755 7.06281 3.69741 7.10912 3.87813C7.18267 4.17435 7.21944 4.78985 7.21944 4.78985L7.22216 4.83605L7.19491 5.28852C7.11456 6.42989 6.29049 7.21932 5.09323 7.29813L4.94068 7.3022C4.53206 7.3022 4.17793 7.20028 3.86601 7.10925L3.72844 7.06983C3.57181 7.05217 3.45739 7.04946 3.25445 7.2818C2.89077 7.70031 2.72732 8.24517 2.60474 8.77101C2.5271 9.10391 2.58157 9.65965 3.05151 9.82542C3.53368 9.99526 3.90144 10.3812 4.16841 10.6991C4.67783 11.3078 4.76227 12.085 4.40132 12.8296C4.1003 13.4479 3.60314 13.9058 2.92346 14.1938C2.71914 14.2808 2.55296 14.3909 2.58703 14.861C2.63198 15.5105 2.85673 16.107 3.25581 16.6369C3.5146 16.9807 3.69303 16.9304 3.92322 16.8774C4.38359 16.7714 4.90664 16.6709 5.4569 16.7442C6.37903 16.8652 7.08323 17.641 7.12954 18.5881C7.15132 19.0732 7.0165 19.4726 6.87619 19.8409C6.81354 20.0066 6.79311 20.1058 6.80671 20.1846C6.82442 20.2988 6.87345 20.4306 7.10773 20.6249C7.57357 21.0108 8.16198 21.2594 8.95606 21.4089C9.02007 21.4211 9.08409 21.4265 9.14812 21.4265C9.60441 21.4265 9.72292 21.1249 9.76106 21.0257C9.93268 20.5786 10.2323 20.1901 10.6478 19.8748C11.0647 19.5596 11.5128 19.4006 11.9827 19.4006Z" stroke="#1E1E1E" stroke-width="0.4" mask="url(#path-1-outside-1_1_748)"/>
</g>
<path id="Vector_2" d="M17.3689 11.9538C17.3453 8.99925 14.9429 6.59617 11.9472 6.59616L11.946 6.59617C8.94034 6.63352 6.59216 8.9969 6.60189 11.978C6.61161 14.9452 9.00616 17.3619 11.9418 17.3619L11.9963 17.3619L11.9972 17.3619C14.9825 17.3329 17.3938 14.9083 17.3689 11.9538ZM17.3689 11.9538L17.2689 11.9546M17.3689 11.9538C17.3689 11.9538 17.3689 11.9538 17.3689 11.9538L17.2689 11.9546M17.2689 11.9546C17.2457 9.05498 14.888 6.69617 11.9472 6.69617C8.99563 6.73284 6.69235 9.05226 6.70189 11.9777C6.71143 14.8909 9.06236 17.2619 11.9418 17.2619H11.9963C14.9275 17.2334 17.2934 14.8528 17.2689 11.9546ZM8.37646 11.9719C8.36983 9.97716 9.94439 8.39238 12.0146 8.3669C13.9713 8.36723 15.5784 9.98194 15.5944 11.969C15.6102 13.9449 13.9905 15.5711 11.9795 15.5912H11.9418C9.98407 15.5912 8.38309 13.9689 8.37646 11.9719Z" fill="#1E1E1E" stroke="#1E1E1E" stroke-width="0.2"/>
</g>
</svg>
