<svg width="26" height="25" viewBox="0 0 26 25" fill="none" xmlns="http://www.w3.org/2000/svg">
<g id="Group 1019">
<g id="Vector">
<mask id="path-1-outside-1_1_756" maskUnits="userSpaceOnUse" x="11.0334" y="10.3398" width="15" height="14" fill="black">
<rect fill="white" x="11.0334" y="10.3398" width="15" height="14"/>
<path d="M23.6209 16.125H23.3376C23.2638 15.8965 23.1652 15.6681 23.0544 15.4517L23.2638 15.2473C23.5224 14.9948 23.6701 14.6582 23.6701 14.2975C23.6701 13.9488 23.5224 13.6001 23.2638 13.3477L22.9436 13.0351C22.4264 12.5301 21.5275 12.5301 21.0103 13.0351L20.801 13.2394C20.5793 13.1312 20.3453 13.0351 20.1114 12.9629V12.6744C20.1114 11.941 19.4957 11.3398 18.7445 11.3398H18.2889C17.5377 11.3398 16.922 11.941 16.922 12.6744V12.9629C16.6881 13.0351 16.4541 13.1312 16.2325 13.2394L16.0231 13.0351C15.5059 12.5301 14.607 12.5301 14.0898 13.0351L13.7697 13.3477C13.2402 13.8646 13.2402 14.7183 13.7697 15.2353L13.979 15.4397C13.8682 15.6561 13.7697 15.8845 13.6958 16.1129H13.4002C12.6491 16.1129 12.0334 16.7141 12.0334 17.4475V17.8923C12.0334 18.6257 12.6491 19.2269 13.4002 19.2269H13.6958C13.7697 19.4553 13.8682 19.6838 13.979 19.9002L13.7697 20.1046C13.2402 20.6216 13.2402 21.4752 13.7697 21.9922L14.0898 22.3048C14.607 22.8097 15.5059 22.8097 16.0231 22.3048L16.2325 22.1004C16.4541 22.2086 16.6881 22.3048 16.922 22.3769V22.6655C16.922 23.3989 17.5377 24 18.2889 24H18.7445C19.4957 24 20.1114 23.3989 20.1114 22.6655V22.3769C20.3453 22.3048 20.5793 22.2086 20.801 22.1004L21.0103 22.3048C21.5275 22.8097 22.4264 22.8097 22.9436 22.3048L23.2638 21.9922C23.7933 21.4752 23.7933 20.6216 23.2638 20.1046L23.0544 19.9002C23.1652 19.6838 23.2638 19.4553 23.3376 19.2269H23.6332C24.3843 19.2269 25 18.6257 25 17.8923V17.4475C24.9877 16.7261 24.372 16.125 23.6209 16.125ZM24.0765 17.9044C24.0765 18.1448 23.8671 18.3492 23.6209 18.3492H22.9929C22.7835 18.3492 22.5988 18.4815 22.5495 18.6859C22.451 19.0586 22.3033 19.4193 22.0939 19.7679C21.9831 19.9483 22.02 20.1647 22.1678 20.309L22.6111 20.7418C22.7835 20.9221 22.7835 21.1987 22.6111 21.367L22.291 21.6796C22.1062 21.8479 21.823 21.8479 21.6506 21.6796L21.2073 21.2468C21.0596 21.1025 20.8256 21.0784 20.6532 21.1746C20.3084 21.379 19.939 21.5233 19.5449 21.6195C19.3479 21.6676 19.2001 21.8479 19.2001 22.0523V22.6655C19.2001 22.9059 18.9908 23.1103 18.7445 23.1103H18.2889C18.0426 23.1103 17.8333 22.9059 17.8333 22.6655V22.0523C17.8333 21.8479 17.6978 21.6676 17.4885 21.6195C17.1068 21.5233 16.725 21.367 16.3925 21.1746C16.2078 21.0664 15.9862 21.1025 15.8384 21.2468L15.3951 21.6796C15.2104 21.8479 14.9272 21.8479 14.7548 21.6796L14.4346 21.367C14.2622 21.1987 14.2622 20.9101 14.4346 20.7418L14.8779 20.309C15.0257 20.1647 15.0503 19.9363 14.9518 19.7679C14.7425 19.4313 14.5947 19.0706 14.4962 18.6979C14.4469 18.5055 14.2622 18.3612 14.0529 18.3612H13.4249C13.1786 18.3612 12.9693 18.1568 12.9693 17.9164V17.4715C12.9693 17.2311 13.1786 17.0267 13.4249 17.0267H14.0529C14.2622 17.0267 14.4469 16.8824 14.4962 16.69C14.5947 16.3173 14.7548 15.9446 14.9518 15.62C15.0626 15.4397 15.0257 15.2232 14.8779 15.079L14.4346 14.6461C14.2622 14.4778 14.2499 14.1893 14.4346 14.0209L14.7548 13.7083C14.9395 13.54 15.2227 13.54 15.3951 13.7083L15.8384 14.1412C15.9862 14.2854 16.2201 14.3095 16.3925 14.2133C16.7373 14.0089 17.1068 13.8646 17.4885 13.7685C17.6855 13.7204 17.8333 13.54 17.8333 13.3356V12.7225C17.8333 12.482 18.0426 12.2776 18.2889 12.2776H18.7445C18.9908 12.2776 19.2001 12.482 19.2001 12.7225V13.3356C19.2001 13.54 19.3356 13.7204 19.5449 13.7685C19.9267 13.8646 20.2961 14.0089 20.6409 14.2133C20.8256 14.3215 21.0472 14.2854 21.195 14.1412L21.6383 13.7083C21.823 13.54 22.1062 13.54 22.2786 13.7083L22.5988 14.0209C22.7712 14.1893 22.7835 14.4778 22.5988 14.6461L22.1555 15.079C22.0077 15.2232 21.9831 15.4517 22.0816 15.62C22.291 15.9566 22.4387 16.3173 22.5372 16.69C22.5865 16.8824 22.7712 17.0267 22.9805 17.0267H23.6086C23.8548 17.0267 24.0642 17.2311 24.0642 17.4715L24.0765 17.9044Z"/>
</mask>
<path d="M23.6209 16.125H23.3376C23.2638 15.8965 23.1652 15.6681 23.0544 15.4517L23.2638 15.2473C23.5224 14.9948 23.6701 14.6582 23.6701 14.2975C23.6701 13.9488 23.5224 13.6001 23.2638 13.3477L22.9436 13.0351C22.4264 12.5301 21.5275 12.5301 21.0103 13.0351L20.801 13.2394C20.5793 13.1312 20.3453 13.0351 20.1114 12.9629V12.6744C20.1114 11.941 19.4957 11.3398 18.7445 11.3398H18.2889C17.5377 11.3398 16.922 11.941 16.922 12.6744V12.9629C16.6881 13.0351 16.4541 13.1312 16.2325 13.2394L16.0231 13.0351C15.5059 12.5301 14.607 12.5301 14.0898 13.0351L13.7697 13.3477C13.2402 13.8646 13.2402 14.7183 13.7697 15.2353L13.979 15.4397C13.8682 15.6561 13.7697 15.8845 13.6958 16.1129H13.4002C12.6491 16.1129 12.0334 16.7141 12.0334 17.4475V17.8923C12.0334 18.6257 12.6491 19.2269 13.4002 19.2269H13.6958C13.7697 19.4553 13.8682 19.6838 13.979 19.9002L13.7697 20.1046C13.2402 20.6216 13.2402 21.4752 13.7697 21.9922L14.0898 22.3048C14.607 22.8097 15.5059 22.8097 16.0231 22.3048L16.2325 22.1004C16.4541 22.2086 16.6881 22.3048 16.922 22.3769V22.6655C16.922 23.3989 17.5377 24 18.2889 24H18.7445C19.4957 24 20.1114 23.3989 20.1114 22.6655V22.3769C20.3453 22.3048 20.5793 22.2086 20.801 22.1004L21.0103 22.3048C21.5275 22.8097 22.4264 22.8097 22.9436 22.3048L23.2638 21.9922C23.7933 21.4752 23.7933 20.6216 23.2638 20.1046L23.0544 19.9002C23.1652 19.6838 23.2638 19.4553 23.3376 19.2269H23.6332C24.3843 19.2269 25 18.6257 25 17.8923V17.4475C24.9877 16.7261 24.372 16.125 23.6209 16.125ZM24.0765 17.9044C24.0765 18.1448 23.8671 18.3492 23.6209 18.3492H22.9929C22.7835 18.3492 22.5988 18.4815 22.5495 18.6859C22.451 19.0586 22.3033 19.4193 22.0939 19.7679C21.9831 19.9483 22.02 20.1647 22.1678 20.309L22.6111 20.7418C22.7835 20.9221 22.7835 21.1987 22.6111 21.367L22.291 21.6796C22.1062 21.8479 21.823 21.8479 21.6506 21.6796L21.2073 21.2468C21.0596 21.1025 20.8256 21.0784 20.6532 21.1746C20.3084 21.379 19.939 21.5233 19.5449 21.6195C19.3479 21.6676 19.2001 21.8479 19.2001 22.0523V22.6655C19.2001 22.9059 18.9908 23.1103 18.7445 23.1103H18.2889C18.0426 23.1103 17.8333 22.9059 17.8333 22.6655V22.0523C17.8333 21.8479 17.6978 21.6676 17.4885 21.6195C17.1068 21.5233 16.725 21.367 16.3925 21.1746C16.2078 21.0664 15.9862 21.1025 15.8384 21.2468L15.3951 21.6796C15.2104 21.8479 14.9272 21.8479 14.7548 21.6796L14.4346 21.367C14.2622 21.1987 14.2622 20.9101 14.4346 20.7418L14.8779 20.309C15.0257 20.1647 15.0503 19.9363 14.9518 19.7679C14.7425 19.4313 14.5947 19.0706 14.4962 18.6979C14.4469 18.5055 14.2622 18.3612 14.0529 18.3612H13.4249C13.1786 18.3612 12.9693 18.1568 12.9693 17.9164V17.4715C12.9693 17.2311 13.1786 17.0267 13.4249 17.0267H14.0529C14.2622 17.0267 14.4469 16.8824 14.4962 16.69C14.5947 16.3173 14.7548 15.9446 14.9518 15.62C15.0626 15.4397 15.0257 15.2232 14.8779 15.079L14.4346 14.6461C14.2622 14.4778 14.2499 14.1893 14.4346 14.0209L14.7548 13.7083C14.9395 13.54 15.2227 13.54 15.3951 13.7083L15.8384 14.1412C15.9862 14.2854 16.2201 14.3095 16.3925 14.2133C16.7373 14.0089 17.1068 13.8646 17.4885 13.7685C17.6855 13.7204 17.8333 13.54 17.8333 13.3356V12.7225C17.8333 12.482 18.0426 12.2776 18.2889 12.2776H18.7445C18.9908 12.2776 19.2001 12.482 19.2001 12.7225V13.3356C19.2001 13.54 19.3356 13.7204 19.5449 13.7685C19.9267 13.8646 20.2961 14.0089 20.6409 14.2133C20.8256 14.3215 21.0472 14.2854 21.195 14.1412L21.6383 13.7083C21.823 13.54 22.1062 13.54 22.2786 13.7083L22.5988 14.0209C22.7712 14.1893 22.7835 14.4778 22.5988 14.6461L22.1555 15.079C22.0077 15.2232 21.9831 15.4517 22.0816 15.62C22.291 15.9566 22.4387 16.3173 22.5372 16.69C22.5865 16.8824 22.7712 17.0267 22.9805 17.0267H23.6086C23.8548 17.0267 24.0642 17.2311 24.0642 17.4715L24.0765 17.9044Z" fill="#555555"/>
<path d="M23.6209 16.125H23.3376C23.2638 15.8965 23.1652 15.6681 23.0544 15.4517L23.2638 15.2473C23.5224 14.9948 23.6701 14.6582 23.6701 14.2975C23.6701 13.9488 23.5224 13.6001 23.2638 13.3477L22.9436 13.0351C22.4264 12.5301 21.5275 12.5301 21.0103 13.0351L20.801 13.2394C20.5793 13.1312 20.3453 13.0351 20.1114 12.9629V12.6744C20.1114 11.941 19.4957 11.3398 18.7445 11.3398H18.2889C17.5377 11.3398 16.922 11.941 16.922 12.6744V12.9629C16.6881 13.0351 16.4541 13.1312 16.2325 13.2394L16.0231 13.0351C15.5059 12.5301 14.607 12.5301 14.0898 13.0351L13.7697 13.3477C13.2402 13.8646 13.2402 14.7183 13.7697 15.2353L13.979 15.4397C13.8682 15.6561 13.7697 15.8845 13.6958 16.1129H13.4002C12.6491 16.1129 12.0334 16.7141 12.0334 17.4475V17.8923C12.0334 18.6257 12.6491 19.2269 13.4002 19.2269H13.6958C13.7697 19.4553 13.8682 19.6838 13.979 19.9002L13.7697 20.1046C13.2402 20.6216 13.2402 21.4752 13.7697 21.9922L14.0898 22.3048C14.607 22.8097 15.5059 22.8097 16.0231 22.3048L16.2325 22.1004C16.4541 22.2086 16.6881 22.3048 16.922 22.3769V22.6655C16.922 23.3989 17.5377 24 18.2889 24H18.7445C19.4957 24 20.1114 23.3989 20.1114 22.6655V22.3769C20.3453 22.3048 20.5793 22.2086 20.801 22.1004L21.0103 22.3048C21.5275 22.8097 22.4264 22.8097 22.9436 22.3048L23.2638 21.9922C23.7933 21.4752 23.7933 20.6216 23.2638 20.1046L23.0544 19.9002C23.1652 19.6838 23.2638 19.4553 23.3376 19.2269H23.6332C24.3843 19.2269 25 18.6257 25 17.8923V17.4475C24.9877 16.7261 24.372 16.125 23.6209 16.125ZM24.0765 17.9044C24.0765 18.1448 23.8671 18.3492 23.6209 18.3492H22.9929C22.7835 18.3492 22.5988 18.4815 22.5495 18.6859C22.451 19.0586 22.3033 19.4193 22.0939 19.7679C21.9831 19.9483 22.02 20.1647 22.1678 20.309L22.6111 20.7418C22.7835 20.9221 22.7835 21.1987 22.6111 21.367L22.291 21.6796C22.1062 21.8479 21.823 21.8479 21.6506 21.6796L21.2073 21.2468C21.0596 21.1025 20.8256 21.0784 20.6532 21.1746C20.3084 21.379 19.939 21.5233 19.5449 21.6195C19.3479 21.6676 19.2001 21.8479 19.2001 22.0523V22.6655C19.2001 22.9059 18.9908 23.1103 18.7445 23.1103H18.2889C18.0426 23.1103 17.8333 22.9059 17.8333 22.6655V22.0523C17.8333 21.8479 17.6978 21.6676 17.4885 21.6195C17.1068 21.5233 16.725 21.367 16.3925 21.1746C16.2078 21.0664 15.9862 21.1025 15.8384 21.2468L15.3951 21.6796C15.2104 21.8479 14.9272 21.8479 14.7548 21.6796L14.4346 21.367C14.2622 21.1987 14.2622 20.9101 14.4346 20.7418L14.8779 20.309C15.0257 20.1647 15.0503 19.9363 14.9518 19.7679C14.7425 19.4313 14.5947 19.0706 14.4962 18.6979C14.4469 18.5055 14.2622 18.3612 14.0529 18.3612H13.4249C13.1786 18.3612 12.9693 18.1568 12.9693 17.9164V17.4715C12.9693 17.2311 13.1786 17.0267 13.4249 17.0267H14.0529C14.2622 17.0267 14.4469 16.8824 14.4962 16.69C14.5947 16.3173 14.7548 15.9446 14.9518 15.62C15.0626 15.4397 15.0257 15.2232 14.8779 15.079L14.4346 14.6461C14.2622 14.4778 14.2499 14.1893 14.4346 14.0209L14.7548 13.7083C14.9395 13.54 15.2227 13.54 15.3951 13.7083L15.8384 14.1412C15.9862 14.2854 16.2201 14.3095 16.3925 14.2133C16.7373 14.0089 17.1068 13.8646 17.4885 13.7685C17.6855 13.7204 17.8333 13.54 17.8333 13.3356V12.7225C17.8333 12.482 18.0426 12.2776 18.2889 12.2776H18.7445C18.9908 12.2776 19.2001 12.482 19.2001 12.7225V13.3356C19.2001 13.54 19.3356 13.7204 19.5449 13.7685C19.9267 13.8646 20.2961 14.0089 20.6409 14.2133C20.8256 14.3215 21.0472 14.2854 21.195 14.1412L21.6383 13.7083C21.823 13.54 22.1062 13.54 22.2786 13.7083L22.5988 14.0209C22.7712 14.1893 22.7835 14.4778 22.5988 14.6461L22.1555 15.079C22.0077 15.2232 21.9831 15.4517 22.0816 15.62C22.291 15.9566 22.4387 16.3173 22.5372 16.69C22.5865 16.8824 22.7712 17.0267 22.9805 17.0267H23.6086C23.8548 17.0267 24.0642 17.2311 24.0642 17.4715L24.0765 17.9044Z" stroke="#555555" stroke-width="0.4" mask="url(#path-1-outside-1_1_756)"/>
</g>
<path id="Vector_2" d="M15.4551 17.6871H15.4551V17.6879C15.4551 19.3328 16.82 20.661 18.5097 20.6734H18.5105C20.1886 20.6734 21.5658 19.3447 21.5658 17.6879L21.5658 17.6871C21.5531 16.0316 20.1893 14.7024 18.5105 14.7024C16.8316 14.7024 15.4679 16.0316 15.4551 17.6871ZM18.5105 19.5717C17.4425 19.5717 16.5664 18.7241 16.5664 17.6759C16.5664 16.6272 17.4305 15.7801 18.5105 15.7801C19.5902 15.7801 20.4543 16.6269 20.4546 17.6753C20.4426 18.7252 19.5773 19.5717 18.5105 19.5717Z" fill="#555555" stroke="#555555" stroke-width="0.2"/>
<path id="Vector_3" d="M11.4484 19.9707L11.4131 19.8704H11.3068H3.52086L12.6904 4.85917L16.7901 8.93183C16.9768 9.128 17.253 9.20047 17.5097 9.14148C17.7799 9.07942 17.9771 8.86468 18.0514 8.60351L18.0515 8.60354L18.053 8.5976C18.1138 8.34501 18.0398 8.06049 17.8381 7.87657L12.2736 2.34028H20.2591C20.5081 2.34028 20.7002 2.53697 20.7002 2.7794V6.2417C20.6913 6.24879 20.6815 6.25723 20.6715 6.26695L20.6604 6.27775L20.6518 6.29058L18.0166 10.2101L17.8595 10.4438H18.1411C18.2065 10.4438 18.2683 10.4406 18.3258 10.4376L18.3273 10.4376C18.3863 10.4345 18.4411 10.4317 18.4982 10.4317C18.8234 10.4317 19.1377 10.4553 19.4542 10.4909L19.5449 10.5011L19.5957 10.4252L20.6879 8.79209V10.6424V10.7514L20.7914 10.7851C21.1905 10.915 21.5892 11.0801 21.9507 11.2684L22.17 11.3826V11.1354V2.76738C22.17 2.25997 21.9703 1.7638 21.6076 1.40966C21.2481 1.05862 20.7552 0.85 20.2468 0.85H2.77322C1.70461 0.85 0.85 1.71131 0.85 2.7794V19.4433C0.85 19.9538 1.06415 20.448 1.42278 20.8111C1.78479 21.1776 2.27945 21.3727 2.78553 21.3727H11.8486H12.1082L11.9786 21.1478C11.7625 20.7727 11.5938 20.3848 11.4484 19.9707ZM2.77322 2.34028H10.1637C10.1781 2.35589 10.1914 2.36893 10.2029 2.38008L10.2033 2.38048L10.2046 2.38176L11.6219 3.79966L2.33214 18.9284V2.7794C2.33214 2.539 2.53452 2.34028 2.77322 2.34028Z" fill="#555555" stroke="#555555" stroke-width="0.3"/>
</g>
</svg>
