<svg width="25" height="25" viewBox="0 0 25 25" fill="none" xmlns="http://www.w3.org/2000/svg">
<g id="Group 996">
<path id="Vector" d="M23.9441 11.4224H22.823C22.3292 6.52795 18.4379 2.63975 13.5435 2.14286V1.0559C13.5435 0.47205 13.0714 0 12.4876 0C11.9037 0 11.4317 0.47205 11.4317 1.0559V2.14286C6.53727 2.63975 2.64596 6.52795 2.15217 11.4224H1.0559C0.47205 11.4224 0 11.8944 0 12.4783C0 13.0621 0.47205 13.5342 1.0559 13.5342H2.15217C2.64596 18.4286 6.53727 22.3199 11.4317 22.8137V23.9441C11.4317 24.528 11.9037 25 12.4876 25C13.0714 25 13.5435 24.528 13.5435 23.9441V22.8137C18.4379 22.3199 22.3292 18.4286 22.823 13.5342H23.9441C24.528 13.5342 25 13.0621 25 12.4783C25 11.8975 24.528 11.4224 23.9441 11.4224ZM12.6211 20.7857C12.5776 20.7795 12.5342 20.7764 12.4876 20.7764C12.441 20.7764 12.3975 20.7795 12.354 20.7857C7.88509 20.7143 4.2764 17.1025 4.21118 12.6335C4.21739 12.5839 4.2236 12.5311 4.2236 12.4783C4.2236 12.4286 4.2205 12.3789 4.21429 12.3292C4.31056 7.84162 7.97826 4.23292 12.4876 4.23292C17.059 4.23292 20.764 7.93789 20.764 12.5093C20.764 17.0373 17.1304 20.7143 12.6211 20.7857Z" fill="#555555"/>
<path id="Vector_2" d="M8.54034 12.5C8.54034 13.5502 8.95752 14.5573 9.70009 15.2999C10.4427 16.0425 11.4498 16.4597 12.5 16.4597C13.5501 16.4597 14.5573 16.0425 15.2999 15.2999C16.0424 14.5573 16.4596 13.5502 16.4596 12.5C16.4596 11.4499 16.0424 10.4427 15.2999 9.70015C14.5573 8.95758 13.5501 8.54041 12.5 8.54041C11.4498 8.54041 10.4427 8.95758 9.70009 9.70015C8.95752 10.4427 8.54034 11.4499 8.54034 12.5Z" fill="#555555"/>
</g>
</svg>
